TITLE ""
FILE "Disc4Track23.mp3" MP3
  TRACK 01 AUDIO
    TITLE "Disc4Track23_01"
    INDEX 01 00:00:00
  TRACK 02 AUDIO
    TITLE "Disc4Track23_02"
    INDEX 01 00:00:65
  TRACK 03 AUDIO
    TITLE "Disc4Track23_03"
    INDEX 01 00:03:56
  TRACK 04 AUDIO
    TITLE "Disc4Track23_04"
    INDEX 01 00:04:57
  TRACK 05 AUDIO
    TITLE "Disc4Track23_05"
    INDEX 01 00:07:03
  TRACK 06 AUDIO
    TITLE "Disc4Track23_06"
    INDEX 01 00:07:34
  TRACK 07 AUDIO
    TITLE "Disc4Track23_07"
    INDEX 01 00:08:43
  TRACK 08 AUDIO
    TITLE "Disc4Track23_08"
    INDEX 01 00:09:48
  TRACK 09 AUDIO
    TITLE "Disc4Track23_09"
    INDEX 01 00:10:58
  TRACK 10 AUDIO
    TITLE "Disc4Track23_10"
    INDEX 01 00:15:18
  TRACK 11 AUDIO
    TITLE "Disc4Track23_11"
    INDEX 01 00:15:47
  TRACK 12 AUDIO
    TITLE "Disc4Track23_12"
    INDEX 01 00:16:64
  TRACK 13 AUDIO
    TITLE "Disc4Track23_13"
    INDEX 01 00:18:14
  TRACK 14 AUDIO
    TITLE "Disc4Track23_14"
    INDEX 01 00:19:27
  TRACK 15 AUDIO
    TITLE "Disc4Track23_15"
    INDEX 01 00:23:15
  TRACK 16 AUDIO
    TITLE "Disc4Track23_16"
    INDEX 01 00:23:45
  TRACK 17 AUDIO
    TITLE "Disc4Track23_17"
    INDEX 01 00:24:70
  TRACK 18 AUDIO
    TITLE "Disc4Track23_18"
    INDEX 01 00:26:06
  TRACK 19 AUDIO
    TITLE "Disc4Track23_19"
    INDEX 01 00:27:31
  TRACK 20 AUDIO
    TITLE "Disc4Track23_20"
    INDEX 01 00:27:68
  TRACK 21 AUDIO
    TITLE "Disc4Track23_21"
    INDEX 01 00:29:14
  TRACK 22 AUDIO
    TITLE "Disc4Track23_22"
    INDEX 01 00:30:21
  TRACK 23 AUDIO
    TITLE "Disc4Track23_23"
    INDEX 01 00:31:40
  TRACK 24 AUDIO
    TITLE "Disc4Track23_24"
    INDEX 01 00:34:05
  TRACK 25 AUDIO
    TITLE "Disc4Track23_25"
    INDEX 01 00:34:37
  TRACK 26 AUDIO
    TITLE "Disc4Track23_26"
    INDEX 01 00:35:48
  TRACK 27 AUDIO
    TITLE "Disc4Track23_27"
    INDEX 01 00:37:08
  TRACK 28 AUDIO
    TITLE "Disc4Track23_28"
    INDEX 01 00:38:17
  TRACK 29 AUDIO
    TITLE "Disc4Track23_29"
    INDEX 01 00:42:34
  TRACK 30 AUDIO
    TITLE "Disc4Track23_30"
    INDEX 01 00:42:66
  TRACK 31 AUDIO
    TITLE "Disc4Track23_31"
    INDEX 01 00:44:10
  TRACK 32 AUDIO
    TITLE "Disc4Track23_32"
    INDEX 01 00:46:14
  TRACK 33 AUDIO
    TITLE "Disc4Track23_33"
    INDEX 01 00:47:31
  TRACK 34 AUDIO
    TITLE "Disc4Track23_34"
    INDEX 01 00:53:42
  TRACK 35 AUDIO
    TITLE "Disc4Track23_35"
    INDEX 01 00:53:69
  TRACK 36 AUDIO
    TITLE "Disc4Track23_36"
    INDEX 01 00:55:11
  TRACK 37 AUDIO
    TITLE "Disc4Track23_37"
    INDEX 01 00:57:02
  TRACK 38 AUDIO
    TITLE "Disc4Track23_38"
    INDEX 01 00:58:19
  TRACK 39 AUDIO
    TITLE "Disc4Track23_39"
    INDEX 01 01:01:57
  TRACK 40 AUDIO
    TITLE "Disc4Track23_40"
    INDEX 01 01:02:13
  TRACK 41 AUDIO
    TITLE "Disc4Track23_41"
    INDEX 01 01:04:34
  TRACK 42 AUDIO
    TITLE "Disc4Track23_42"
    INDEX 01 01:06:27
  TRACK 43 AUDIO
    TITLE "Disc4Track23_43"
    INDEX 01 01:08:45
  TRACK 44 AUDIO
    TITLE "Disc4Track23_44"
    INDEX 01 01:10:68
  TRACK 45 AUDIO
    TITLE "Disc4Track23_45"
    INDEX 01 01:11:24
  TRACK 46 AUDIO
    TITLE "Disc4Track23_46"
    INDEX 01 01:12:43
  TRACK 47 AUDIO
    TITLE "Disc4Track23_47"
    INDEX 01 01:14:34
  TRACK 48 AUDIO
    TITLE "Disc4Track23_48"
    INDEX 01 01:15:55
  TRACK 49 AUDIO
    TITLE "Disc4Track23_49"
    INDEX 01 01:20:31
